<?xml version="1.0" encoding="UTF-8" standalone="no"?>
<!DOCTYPE svg PUBLIC "-//W3C//DTD SVG 1.1//EN"
 "http://www.w3.org/Graphics/SVG/1.1/DTD/svg11.dtd">
<!-- Generated by graphviz version 14.1.5 (20260411.2331)
 -->
<!-- Title: G Pages: 1 -->
<svg width="551pt" height="295pt"
 viewBox="0.00 0.00 551.00 295.00" xmlns="http://www.w3.org/2000/svg" xmlns:xlink="http://www.w3.org/1999/xlink">
<g id="graph0" class="graph" transform="scale(1 1) rotate(0) translate(4 291.48)">
<title>G</title><style>.edge>path:hover{stroke-width:8}</style>
<polygon fill="white" stroke="none" points="-4,4 -4,-291.48 546.83,-291.48 546.83,4 -4,4"/>
<!-- config_asgi -->
<g id="node1" class="node">
<title>config_asgi</title><style>.edge>path:hover{stroke-width:8}</style>
<ellipse fill="#a44646" stroke="black" cx="237.12" cy="-18" rx="38.03" ry="18"/>
<text xml:space="preserve" text-anchor="middle" x="237.12" y="-14.5" font-family="Helvetica,sans-Serif" font-size="10.00" fill="#ffffff">config.asgi</text>
</g>
<!-- config_settings -->
<g id="node2" class="node">
<title>config_settings</title><style>.edge>path:hover{stroke-width:8}</style>
<ellipse fill="#b34c4c" stroke="black" cx="507.12" cy="-94.63" rx="35.71" ry="22.63"/>
<text xml:space="preserve" text-anchor="middle" x="507.12" y="-97.13" font-family="Helvetica,sans-Serif" font-size="10.00" fill="#ffffff">config.</text>
<text xml:space="preserve" text-anchor="middle" x="507.12" y="-85.13" font-family="Helvetica,sans-Serif" font-size="10.00" fill="#ffffff">settings</text>
</g>
<!-- config_urls -->
<g id="node3" class="node">
<title>config_urls</title><style>.edge>path:hover{stroke-width:8}</style>
<ellipse fill="#9d4343" stroke="black" cx="126.12" cy="-18" rx="36.68" ry="18"/>
<text xml:space="preserve" text-anchor="middle" x="126.12" y="-14.5" font-family="Helvetica,sans-Serif" font-size="10.00" fill="#ffffff">config.urls</text>
</g>
<!-- config_wsgi -->
<g id="node4" class="node">
<title>config_wsgi</title><style>.edge>path:hover{stroke-width:8}</style>
<ellipse fill="#a44646" stroke="black" cx="428.12" cy="-18" rx="39.39" ry="18"/>
<text xml:space="preserve" text-anchor="middle" x="428.12" y="-14.5" font-family="Helvetica,sans-Serif" font-size="10.00" fill="#ffffff">config.wsgi</text>
</g>
<!-- django -->
<g id="node5" class="node">
<title>django</title><style>.edge>path:hover{stroke-width:8}</style>
<ellipse fill="#06ef06" stroke="black" cx="237.12" cy="-171.25" rx="27" ry="18"/>
<text xml:space="preserve" text-anchor="middle" x="237.12" y="-167.75" font-family="Helvetica,sans-Serif" font-size="10.00" fill="#000000">django</text>
</g>
<!-- django&#45;&gt;config_asgi -->
<g id="edge1" class="edge">
<title>django&#45;&gt;config_asgi</title><style>.edge>path:hover{stroke-width:8}</style>
<path fill="none" stroke="black" d="M237.12,-93.63C232.34,-78.9 232.03,-61.65 233.05,-47.45"/>
<polygon fill="#06ef06" stroke="black" points="236.49,-48.17 234,-37.87 229.53,-47.47 236.49,-48.17"/>
</g>
<!-- django&#45;&gt;config_urls -->
<g id="edge2" class="edge">
<title>django&#45;&gt;config_urls</title><style>.edge>path:hover{stroke-width:8}</style>
<path fill="none" stroke="black" d="M240.09,-152.89C242.04,-137.46 243.23,-114.48 237.12,-95.63"/>
<path fill="none" stroke="black" d="M237.12,-93.63C227.1,-62.72 194.87,-43.3 167.71,-32.05"/>
<polygon fill="#06ef06" stroke="black" points="169.22,-28.88 158.63,-28.54 166.69,-35.41 169.22,-28.88"/>
</g>
<!-- django&#45;&gt;config_wsgi -->
<g id="edge3" class="edge">
<title>django&#45;&gt;config_wsgi</title><style>.edge>path:hover{stroke-width:8}</style>
<path fill="none" stroke="black" d="M428.12,-93.63C434.55,-79.32 434.9,-61.85 433.48,-47.41"/>
<polygon fill="#06ef06" stroke="black" points="436.96,-47.07 432.16,-37.63 430.03,-48.01 436.96,-47.07"/>
<path fill="none" stroke="black" d="M262.81,-164.79C311.57,-153.74 413.96,-127.12 428.12,-95.63"/>
</g>
<!-- django_contrib -->
<g id="node6" class="node">
<title>django_contrib</title><style>.edge>path:hover{stroke-width:8}</style>
<ellipse fill="#47c247" stroke="black" cx="108.12" cy="-171.25" rx="46.15" ry="18"/>
<text xml:space="preserve" text-anchor="middle" x="108.12" y="-167.75" font-family="Helvetica,sans-Serif" font-size="10.00" fill="#000000">django.contrib</text>
</g>
<!-- django_contrib&#45;&gt;config_urls -->
<g id="edge4" class="edge">
<title>django_contrib&#45;&gt;config_urls</title><style>.edge>path:hover{stroke-width:8}</style>
<path fill="none" stroke="black" d="M107,-153C106.28,-137.83 105.85,-115.19 108.12,-95.63"/>
</g>
<!-- django_contrib_admin -->
<g id="node7" class="node">
<title>django_contrib_admin</title><style>.edge>path:hover{stroke-width:8}</style>
<ellipse fill="#3ab03a" stroke="black" cx="34.12" cy="-256.37" rx="34.12" ry="31.11"/>
<text xml:space="preserve" text-anchor="middle" x="34.12" y="-264.87" font-family="Helvetica,sans-Serif" font-size="10.00" fill="#ffffff">django.</text>
<text xml:space="preserve" text-anchor="middle" x="34.12" y="-252.87" font-family="Helvetica,sans-Serif" font-size="10.00" fill="#ffffff">contrib.</text>
<text xml:space="preserve" text-anchor="middle" x="34.12" y="-240.87" font-family="Helvetica,sans-Serif" font-size="10.00" fill="#ffffff">admin</text>
</g>
<!-- django_contrib_admin&#45;&gt;config_urls -->
<g id="edge5" class="edge">
<title>django_contrib_admin&#45;&gt;config_urls</title><style>.edge>path:hover{stroke-width:8}</style>
<path fill="none" stroke="black" d="M35.24,-224.86C37.08,-203.75 41.7,-175.57 53.12,-153.25 69.25,-121.74 103.16,-130.68 108.12,-95.63"/>
<path fill="none" stroke="black" d="M108.12,-93.63C109.88,-78 113.84,-60.93 117.6,-47.07"/>
<polygon fill="#3ab03a" stroke="black" points="120.89,-48.3 120.24,-37.73 114.15,-46.4 120.89,-48.3"/>
</g>
<!-- django_core -->
<g id="node8" class="node">
<title>django_core</title><style>.edge>path:hover{stroke-width:8}</style>
<ellipse fill="#2fdb2f" stroke="black" cx="360.12" cy="-171.25" rx="39.84" ry="18"/>
<text xml:space="preserve" text-anchor="middle" x="360.12" y="-167.75" font-family="Helvetica,sans-Serif" font-size="10.00" fill="#000000">django.core</text>
</g>
<!-- django_core&#45;&gt;config_asgi -->
<g id="edge6" class="edge">
<title>django_core&#45;&gt;config_asgi</title><style>.edge>path:hover{stroke-width:8}</style>
<path fill="none" stroke="black" d="M342.12,-154.76C326.85,-140.72 305.36,-118.75 292.12,-95.63"/>
</g>
<!-- django_core&#45;&gt;config_wsgi -->
<g id="edge7" class="edge">
<title>django_core&#45;&gt;config_wsgi</title><style>.edge>path:hover{stroke-width:8}</style>
<path fill="none" stroke="black" d="M379.58,-155.07C395.56,-141.39 417.27,-119.77 428.12,-95.63"/>
</g>
<!-- django_core_asgi -->
<g id="node9" class="node">
<title>django_core_asgi</title><style>.edge>path:hover{stroke-width:8}</style>
<ellipse fill="#49ac49" stroke="black" cx="292.12" cy="-256.37" rx="33.59" ry="31.11"/>
<text xml:space="preserve" text-anchor="middle" x="292.12" y="-264.87" font-family="Helvetica,sans-Serif" font-size="10.00" fill="#000000">django.</text>
<text xml:space="preserve" text-anchor="middle" x="292.12" y="-252.87" font-family="Helvetica,sans-Serif" font-size="10.00" fill="#000000">core.</text>
<text xml:space="preserve" text-anchor="middle" x="292.12" y="-240.87" font-family="Helvetica,sans-Serif" font-size="10.00" fill="#000000">asgi</text>
</g>
<!-- django_core_asgi&#45;&gt;config_asgi -->
<g id="edge8" class="edge">
<title>django_core_asgi&#45;&gt;config_asgi</title><style>.edge>path:hover{stroke-width:8}</style>
<path fill="none" stroke="black" d="M300.39,-225.75C308.08,-191.88 315.2,-135.94 292.12,-95.63"/>
<path fill="none" stroke="black" d="M292.12,-93.63C281.32,-76.4 267.79,-58 256.85,-43.78"/>
<polygon fill="#49ac49" stroke="black" points="259.92,-42.03 251.02,-36.29 254.4,-46.33 259.92,-42.03"/>
</g>
<!-- django_core_wsgi -->
<g id="node10" class="node">
<title>django_core_wsgi</title><style>.edge>path:hover{stroke-width:8}</style>
<ellipse fill="#49ac49" stroke="black" cx="428.12" cy="-256.37" rx="33.59" ry="31.11"/>
<text xml:space="preserve" text-anchor="middle" x="428.12" y="-264.87" font-family="Helvetica,sans-Serif" font-size="10.00" fill="#000000">django.</text>
<text xml:space="preserve" text-anchor="middle" x="428.12" y="-252.87" font-family="Helvetica,sans-Serif" font-size="10.00" fill="#000000">core.</text>
<text xml:space="preserve" text-anchor="middle" x="428.12" y="-240.87" font-family="Helvetica,sans-Serif" font-size="10.00" fill="#000000">wsgi</text>
</g>
<!-- django_core_wsgi&#45;&gt;config_wsgi -->
<g id="edge9" class="edge">
<title>django_core_wsgi&#45;&gt;config_wsgi</title><style>.edge>path:hover{stroke-width:8}</style>
<path fill="none" stroke="black" d="M421.12,-225.59C414.85,-192.32 409.24,-137.62 428.12,-95.63"/>
</g>
<!-- django_urls -->
<g id="node11" class="node">
<title>django_urls</title><style>.edge>path:hover{stroke-width:8}</style>
<ellipse fill="#47c247" stroke="black" cx="192.12" cy="-256.37" rx="38.03" ry="18"/>
<text xml:space="preserve" text-anchor="middle" x="192.12" y="-252.87" font-family="Helvetica,sans-Serif" font-size="10.00" fill="#000000">django.urls</text>
</g>
<!-- django_urls&#45;&gt;config_urls -->
<g id="edge10" class="edge">
<title>django_urls&#45;&gt;config_urls</title><style>.edge>path:hover{stroke-width:8}</style>
<path fill="none" stroke="black" d="M189.82,-238.12C186.44,-216.98 178.76,-180.61 163.12,-153.25 145.54,-122.52 104.04,-130.8 108.12,-95.63"/>
</g>
<!-- django_urls&#45;&gt;django -->
<g id="edge11" class="edge">
<title>django_urls&#45;&gt;django</title><style>.edge>path:hover{stroke-width:8}</style>
<path fill="none" stroke="black" d="M201.22,-238.55C207.47,-227.02 215.87,-211.5 222.98,-198.37"/>
<polygon fill="#47c247" stroke="black" points="225.93,-200.27 227.61,-189.81 219.77,-196.94 225.93,-200.27"/>
</g>
<!-- dotenv -->
<g id="node12" class="node">
<title>dotenv</title><style>.edge>path:hover{stroke-width:8}</style>
<ellipse fill="#5353b6" stroke="black" cx="507.12" cy="-256.37" rx="27.21" ry="18"/>
<text xml:space="preserve" text-anchor="middle" x="507.12" y="-252.87" font-family="Helvetica,sans-Serif" font-size="10.00" fill="#ffffff">dotenv</text>
</g>
<!-- dotenv&#45;&gt;config_settings -->
<g id="edge12" class="edge">
<title>dotenv&#45;&gt;config_settings</title><style>.edge>path:hover{stroke-width:8}</style>
<path fill="none" stroke="black" d="M507.12,-237.97C507.12,-211.9 507.12,-162.22 507.12,-129"/>
<polygon fill="#5353b6" stroke="black" points="510.62,-129.1 507.12,-119.1 503.62,-129.1 510.62,-129.1"/>
</g>
</g>
</svg>
